# xmcd CD database file
#
# Track frame offsets:
#	150
#	14841
#	29147
#	38925
#	50236
#	64462
#	88179
#	96286
#	122139
#	138030
#	153716
#	182615
#	194474
#	207658
#	219189
#	232552
#	245939
#
# Disc length: 3425 seconds
#
# Revision: 0
# Processed by: cddbd v1.5.2PL0 Copyright (c) Steve Scherf et al.
# Submitted via: CDex 1.70beta2
#
DISCID=080d5f11
DTITLE=Benny Goodman - The King Of Swing Vol. 12
DYEAR=2007
DGENRE=Jazz
TTITLE0=At The Darktown Strutter's Ball
TTITLE1=Time On My Hands (You In My Arms)
TTITLE2=Three Little Words
TTITLE3=Sunday, Monday For Always
TTITLE4=Bugle Call Rag
TTITLE5=Sweet Georgia Brown
TTITLE6=Memories Of You
TTITLE7=Medley: Oh Lady Be Good/Mack The Knife/I Can't Give You Anything But Love
TTITLE8=Avalon
TTITLE9=Rose Room
TTITLE10=That's A Plenty
TTITLE11=Lulu's Back In Town
TTITLE12=New Kind Of Love
TTITLE13=Muskrat Rumble
TTITLE14=Stompin' At The Savoy
TTITLE15=The Dixieland Band
TTITLE16=Dear Old Southland
EXTD=YEAR: 2007
EXTT0=
EXTT1=
EXTT2=
EXTT3=
EXTT4=
EXTT5=
EXTT6=
EXTT7=
EXTT8=
EXTT9=
EXTT10=
EXTT11=
EXTT12=
EXTT13=
EXTT14=
EXTT15=
EXTT16=
PLAYORDER=
